<?xml version="1.0" encoding="UTF-8"?>
<svg width="192px" height="32px" viewBox="0 0 192 32" version="1.1" xmlns="http://www.w3.org/2000/svg" xmlns:xlink="http://www.w3.org/1999/xlink">
    <!-- Generator: Sketch 56.2 (81672) - https://sketch.com -->
    <title>Group 14</title>
    <desc>Created with Sketch.</desc>
    <defs>
        <polygon id="path-1" points="0 0.568648889 18.7946882 0.568648889 18.7946882 25.8914933 0 25.8914933"></polygon>
        <polygon id="path-3" points="0 33 193 33 193 1 0 1"></polygon>
    </defs>
    <g id="Symbols" stroke="none" stroke-width="1" fill="none" fill-rule="evenodd">
        <g id="Main-Nav-/-none-selected" transform="translate(-124.000000, -40.000000)">
            <g id="Main-Nav">
                <g id="Group-14" transform="translate(124.000000, 40.000000)">
                    <path d="M173.461754,14.4227368 L177.879439,10.0050526 C178.495298,9.38919298 178.495298,8.38989474 177.879439,7.77403509 C177.263018,7.15817544 176.264281,7.15817544 175.648982,7.77403509 L165.845193,17.5778246 L172.538246,17.5778246 L168.120561,21.9955088 C167.505263,22.610807 167.505263,23.6101053 168.120561,24.2259649 C168.736982,24.8418246 169.735719,24.8418246 170.351579,24.2259649 L180.155368,14.4227368 L173.461754,14.4227368 Z M188.774596,16.0002807 C188.774596,24.7121404 181.71214,31.7745965 173.000281,31.7745965 C164.28786,31.7745965 157.225404,24.7121404 157.225404,16.0002807 C157.225404,7.28842105 164.28786,0.225403509 173.000281,0.225403509 C181.71214,0.225403509 188.774596,7.28842105 188.774596,16.0002807 L188.774596,16.0002807 Z" id="Fill-1" fill="#006EBA"></path>
                    <g id="Group-6" transform="translate(0.000000, 4.000000)">
                        <mask id="mask-2" fill="white">
                            <use xlink:href="#path-1"></use>
                        </mask>
                        <g id="Clip-5"></g>
                        <path d="M13.0483059,19.0020711 C13.0483059,18.1330933 12.7510118,17.4559378 12.1558647,16.9706044 C11.5607176,16.4858489 10.5162765,15.9831822 9.02086471,15.4643378 C7.52545294,14.9454933 6.30330588,14.4428267 5.35330588,13.9580711 C2.26468824,12.3894044 0.7201,10.2337156 0.7201,7.49158222 C0.7201,6.12629333 1.10512941,4.92162667 1.87462941,3.87758222 C2.64412941,2.83411556 3.73271765,2.02118222 5.14095294,1.43993778 C6.54862941,0.859271111 8.13121765,0.568648889 9.88871765,0.568648889 C11.6020706,0.568648889 13.1382765,0.884693333 14.4973353,1.51620444 C15.8558353,2.14829333 16.9120118,3.04847111 17.6653059,4.21616 C18.4180412,5.38442667 18.7946882,6.71851556 18.7946882,8.21958222 L13.0645118,8.21958222 C13.0645118,7.21540444 12.7672176,6.43656 12.1726294,5.88362667 C11.5774824,5.33069333 10.7727765,5.05393778 9.75739412,5.05393778 C8.73139412,5.05393778 7.9211,5.28851556 7.32651176,5.75651556 C6.73136471,6.22509333 6.43407059,6.82020444 6.43407059,7.54242667 C6.43407059,8.17451556 6.76154118,8.74709333 7.41648235,9.26073778 C8.07142353,9.77380444 9.2226,10.3042044 10.8711294,10.8519378 C12.5185412,11.3990933 13.8725706,11.9884267 14.9309824,12.6205156 C17.5071588,14.1550933 18.7946882,16.2709156 18.7946882,18.9679822 C18.7946882,21.1236711 18.0089824,22.81656 16.4370118,24.0460711 C14.8656,25.27616 12.7102176,25.8914933 9.97030588,25.8914933 C8.03845294,25.8914933 6.28933529,25.5332711 4.72351176,24.8162489 C3.15712941,24.0998044 1.97801176,23.11816 1.18671765,21.8713156 C0.395423529,20.6244711 -0.000223529412,19.1881156 -0.000223529412,17.5634044 L5.76292353,17.5634044 C5.76292353,18.8836267 6.09262941,19.8566044 6.75315882,20.4829156 C7.41368824,21.1092267 8.48607059,21.4223822 9.97030588,21.4223822 C10.9197471,21.4223822 11.6702471,21.2109156 12.2218059,20.7879822 C12.7722471,20.3644711 13.0483059,19.76936 13.0483059,19.0020711" id="Fill-4" fill="#1E2943" mask="url(#mask-2)"></path>
                    </g>
                    <polygon id="Fill-7" fill="#1E2943" points="48.6742738 20.0495124 51.3742856 5 57 5 52.0044539 29 46.1199401 29 42.9674431 15.3188297 39.8795081 29 34.0115486 29 29 5 34.6417169 5 37.3417287 20.0495124 40.5747901 5 45.392653 5"></polygon>
                    <mask id="mask-4" fill="white">
                        <use xlink:href="#path-3"></use>
                    </mask>
                    <g id="Clip-10"></g>
                    <polygon id="Fill-9" fill="#1E2943" mask="url(#mask-4)" points="69 29 75 29 75 5 69 5"></polygon>
                    <polygon id="Fill-11" fill="#1E2943" mask="url(#mask-4)" points="105.005081 19.4396099 95.1261959 19.4396099 95.1261959 29 89 29 89 5 106 5 106 9.4668042 95.1261959 9.4668042 95.1261959 14.9891223 105.005081 14.9891223"></polygon>
                    <polygon id="Fill-12" fill="#1E2943" mask="url(#mask-4)" points="138 9.4668042 130.818197 9.4668042 130.818197 29 125.04998 29 125.04998 9.4668042 118 9.4668042 118 5 138 5"></polygon>
                    <path d="M191.777985,3.45084746 L191.309849,5 L191.149505,5 L190.681368,3.42440678 L190.681368,5 L190.45655,5 L190.45655,3 L190.736872,3 L191.229116,4.60135593 L191.721921,3 L192,3 L192,5 L191.777985,5 L191.777985,3.45084746 Z M190.2037,3.25694915 L189.714259,3.25694915 L189.714259,5 L189.489441,5 L189.489441,3.25694915 L189,3.25694915 L189,3 L190.2037,3 L190.2037,3.25694915 Z" id="Fill-13" fill="#1E2943" mask="url(#mask-4)"></path>
                </g>
            </g>
        </g>
    </g>
</svg>